<svg width="21" height="20" viewBox="0 0 21 20" fill="none" xmlns="http://www.w3.org/2000/svg">
<g id="Calendar">
<path id="Shape" d="M16.2461 1C18.041 1 19.4961 2.45507 19.4961 4.25V15.75C19.4961 17.5449 18.041 19 16.2461 19H4.74609C2.95117 19 1.49609 17.5449 1.49609 15.75V4.25C1.49609 2.45507 2.95117 1 4.74609 1H16.2461ZM17.9961 6.5H2.99609V15.75C2.99609 16.7165 3.7796 17.5 4.74609 17.5H16.2461C17.2126 17.5 17.9961 16.7165 17.9961 15.75V6.5ZM6.24609 12.5C6.93645 12.5 7.49609 13.0596 7.49609 13.75C7.49609 14.4404 6.93645 15 6.24609 15C5.55574 15 4.99609 14.4404 4.99609 13.75C4.99609 13.0596 5.55574 12.5 6.24609 12.5ZM10.4961 12.5C11.1865 12.5 11.7461 13.0596 11.7461 13.75C11.7461 14.4404 11.1865 15 10.4961 15C9.80574 15 9.24609 14.4404 9.24609 13.75C9.24609 13.0596 9.80574 12.5 10.4961 12.5ZM6.24609 8.5C6.93645 8.5 7.49609 9.05964 7.49609 9.75C7.49609 10.4404 6.93645 11 6.24609 11C5.55574 11 4.99609 10.4404 4.99609 9.75C4.99609 9.05964 5.55574 8.5 6.24609 8.5ZM10.4961 8.5C11.1865 8.5 11.7461 9.05964 11.7461 9.75C11.7461 10.4404 11.1865 11 10.4961 11C9.80574 11 9.24609 10.4404 9.24609 9.75C9.24609 9.05964 9.80574 8.5 10.4961 8.5ZM14.7461 8.5C15.4365 8.5 15.9961 9.05964 15.9961 9.75C15.9961 10.4404 15.4365 11 14.7461 11C14.0557 11 13.4961 10.4404 13.4961 9.75C13.4961 9.05964 14.0557 8.5 14.7461 8.5ZM16.2461 2.5H4.74609C3.7796 2.5 2.99609 3.2835 2.99609 4.25V5H17.9961V4.25C17.9961 3.2835 17.2126 2.5 16.2461 2.5Z" fill="#9E9E9E"/>
</g>
</svg>
