<svg width="16" height="17" viewBox="0 0 16 17" fill="none" xmlns="http://www.w3.org/2000/svg">
<g id="&#240;&#159;&#166;&#134; icon &#34;Clock&#34;">
<path id="Vector" d="M8 0.630981C12.4183 0.630981 16 4.18428 16 8.5675C16 12.9507 12.4183 16.504 8 16.504C3.58172 16.504 0 12.9507 0 8.5675C0 4.18428 3.58172 0.630981 8 0.630981ZM8 2.21828C4.46538 2.21828 1.6 5.06092 1.6 8.5675C1.6 12.0741 4.46538 14.9167 8 14.9167C11.5346 14.9167 14.4 12.0741 14.4 8.5675C14.4 5.06092 11.5346 2.21828 8 2.21828ZM7.2 4.59924C7.59274 4.59924 7.91937 4.87999 7.98711 5.25023L8 5.39289V8.5675H10.4C10.8418 8.5675 11.2 8.92283 11.2 9.36115C11.2 9.75077 10.917 10.0748 10.5438 10.142L10.4 10.1548H7.2C6.80726 10.1548 6.48063 9.87404 6.41289 9.50381L6.4 9.36115V5.39289C6.4 4.95457 6.75817 4.59924 7.2 4.59924Z" fill="#F5F5F5"/>
</g>
</svg>
