<svg width="12" height="13" viewBox="0 0 12 13" fill="none" xmlns="http://www.w3.org/2000/svg">
<g id="&#240;&#159;&#166;&#134; icon &#34;Delete&#34;">
<g id="Group">
<path id="Vector" d="M4.80322 5.5V9.5C4.80322 9.7761 5.02708 10 5.30322 10C5.57936 10 5.80322 9.7761 5.80322 9.5V5.5C5.80322 5.22386 5.57936 5 5.30322 5C5.02708 5 4.80322 5.22386 4.80322 5.5Z" fill="#7350FF"/>
<path id="Vector_2" d="M7.30347 5C7.57961 5 7.80347 5.22386 7.80347 5.5V9.5C7.80347 9.7761 7.57961 10 7.30347 10C7.02733 10 6.80347 9.7761 6.80347 9.5V5.5C6.80347 5.22386 7.02733 5 7.30347 5Z" fill="#7350FF"/>
<path id="Vector_3" d="M8.30322 2.5H11.3032C11.5793 2.5 11.8032 2.72386 11.8032 3C11.8032 3.27614 11.5793 3.5 11.3032 3.5H10.7507L9.99782 10.2761C9.85712 11.5422 8.78702 12.5 7.51313 12.5H5.0933C3.81943 12.5 2.74927 11.5422 2.60859 10.2761L1.85569 3.5H1.30322C1.02708 3.5 0.803223 3.27614 0.803223 3C0.803223 2.72386 1.02708 2.5 1.30322 2.5H4.30322C4.30322 1.39543 5.19865 0.5 6.30322 0.5C7.40779 0.5 8.30322 1.39543 8.30322 2.5ZM6.30322 1.5C5.75094 1.5 5.30322 1.94772 5.30322 2.5H7.30322C7.30322 1.94772 6.85551 1.5 6.30322 1.5ZM2.86185 3.5L3.60247 10.1656C3.68688 10.9253 4.32897 11.5 5.0933 11.5H7.51313C8.27745 11.5 8.91952 10.9253 9.00392 10.1656L9.74462 3.5H2.86185Z" fill="#7350FF"/>
</g>
</g>
</svg>
