<svg width="13" height="13" viewBox="0 0 13 13" fill="none" xmlns="http://www.w3.org/2000/svg">
<g id="&#240;&#159;&#166;&#134; icon &#34;Edit&#34;">
<path id="Vector" d="M12.2197 1.08353C12.9977 1.86157 12.9977 3.12302 12.2197 3.90106L4.86168 11.2591C4.54252 11.5782 4.14261 11.8047 3.70473 11.9141L1.42255 12.4847C1.05777 12.5759 0.727352 12.2455 0.818547 11.8807L1.38909 9.5985C1.49856 9.16061 1.72498 8.7607 2.04415 8.44154L9.40216 1.08353C10.1802 0.30549 11.4417 0.30549 12.2197 1.08353ZM8.6977 3.19657L2.74853 9.14592C2.55703 9.33742 2.42118 9.57736 2.3555 9.8401L1.98629 11.3169L3.46312 10.9477C3.72586 10.882 3.9658 10.7462 4.1573 10.5547L10.1063 4.60513L8.6977 3.19657ZM10.1065 1.78791L9.40198 2.4923L10.8105 3.90085L11.5153 3.19668C11.9043 2.80766 11.9043 2.17693 11.5153 1.78791C11.1263 1.39889 10.4956 1.39889 10.1065 1.78791Z" fill="#7350FF"/>
</g>
</svg>
