<svg width="21" height="20" viewBox="0 0 21 20" fill="none" xmlns="http://www.w3.org/2000/svg">
<g id="Glyph">
<g id="Vector">
<path fill-rule="evenodd" clip-rule="evenodd" d="M9.49609 8.5C8.66767 8.5 7.99609 9.17157 7.99609 10C7.99609 10.8284 8.66767 11.5 9.49609 11.5C10.3245 11.5 10.9961 10.8284 10.9961 10C10.9961 9.17157 10.3245 8.5 9.49609 8.5ZM6.49609 10C6.49609 8.34315 7.83924 7 9.49609 7C11.1529 7 12.4961 8.34315 12.4961 10C12.4961 11.6569 11.1529 13 9.49609 13C7.83924 13 6.49609 11.6569 6.49609 10Z" fill="#9E9E9E"/>
<path fill-rule="evenodd" clip-rule="evenodd" d="M9.49609 2.5C9.29718 2.5 9.10642 2.57902 8.96576 2.71967C8.82511 2.86032 8.74609 3.05109 8.74609 3.25V3.38049C8.74455 3.7681 8.62969 4.14679 8.41567 4.46996C8.20165 4.79313 7.89781 5.04666 7.54154 5.19935C7.47813 5.22653 7.41141 5.24477 7.3433 5.25367C7.01958 5.36704 6.67109 5.39498 6.33184 5.33347C5.9411 5.26262 5.58053 5.07634 5.29665 4.79865L5.29073 4.79286L5.24576 4.74783C5.17611 4.6781 5.0931 4.62248 5.00205 4.58474C4.911 4.547 4.81341 4.52757 4.71484 4.52757C4.61628 4.52757 4.51869 4.547 4.42764 4.58474C4.33659 4.62248 4.25387 4.6778 4.18422 4.74754L4.18363 4.74813C4.1139 4.81778 4.05858 4.9005 4.02083 4.99154C3.98309 5.08259 3.96366 5.18019 3.96366 5.27875C3.96366 5.37731 3.98309 5.47491 4.02083 5.56596C4.05858 5.657 4.1139 5.73972 4.18363 5.80937L4.23477 5.86052C4.51247 6.14441 4.69871 6.505 4.76956 6.89575C4.839 7.27872 4.79444 7.67347 4.64168 8.03108C4.50251 8.396 4.25883 8.712 3.94088 8.93941C3.6165 9.17142 3.22983 9.30047 2.83113 9.30979L2.81359 9.31H2.74609C2.54718 9.31 2.35642 9.38902 2.21576 9.52967C2.07511 9.67032 1.99609 9.86109 1.99609 10.06C1.99609 10.2589 2.07511 10.4497 2.21576 10.5903C2.35642 10.731 2.54718 10.81 2.74609 10.81H2.87659C3.26419 10.8115 3.64289 10.9264 3.96605 11.1404C4.2881 11.3537 4.54099 11.6562 4.69385 12.0108C4.8529 12.3732 4.90018 12.7748 4.82956 13.1642C4.75871 13.555 4.57243 13.9156 4.29474 14.1994L4.28895 14.2054L4.24392 14.2503C4.17419 14.32 4.11858 14.403 4.08083 14.494C4.04309 14.5851 4.02366 14.6827 4.02366 14.7812C4.02366 14.8798 4.04309 14.9774 4.08083 15.0685C4.11858 15.1595 4.1739 15.2422 4.24363 15.3119L4.24422 15.3125C4.31387 15.3822 4.39659 15.4375 4.48764 15.4753C4.57869 15.513 4.67628 15.5324 4.77484 15.5324C4.8734 15.5324 4.971 15.513 5.06205 15.4753C5.1531 15.4375 5.23582 15.3822 5.30547 15.3125L5.35661 15.2613C5.6405 14.9836 6.0011 14.7974 6.39185 14.7265C6.77481 14.6571 7.16956 14.7017 7.52717 14.8544C7.89209 14.9936 8.2081 15.2373 8.4355 15.5552C8.66751 15.8796 8.79656 16.2663 8.80589 16.665L8.80609 16.6825V16.75C8.80609 16.9489 8.88511 17.1397 9.02576 17.2803C9.16642 17.421 9.35718 17.5 9.55609 17.5C9.75501 17.5 9.94577 17.421 10.0864 17.2803C10.2271 17.1397 10.3061 16.9489 10.3061 16.75V16.6225L10.3061 16.6195C10.3076 16.2319 10.4225 15.8532 10.6365 15.53C10.8498 15.208 11.1523 14.9551 11.507 14.8022C11.8694 14.6432 12.2709 14.5959 12.6603 14.6665C13.0511 14.7374 13.4117 14.9237 13.6955 15.2014L13.7015 15.2071L13.7464 15.2522C13.8161 15.3219 13.8991 15.3775 13.9901 15.4153C14.0812 15.453 14.1788 15.4724 14.2773 15.4724C14.3759 15.4724 14.4735 15.453 14.5645 15.4153C14.6556 15.3775 14.7383 15.3222 14.808 15.2525L14.8086 15.2519C14.8783 15.1822 14.9336 15.0995 14.9714 15.0085C15.0091 14.9174 15.0285 14.8198 15.0285 14.7213C15.0285 14.6227 15.0091 14.5251 14.9714 14.434C14.9336 14.343 14.8783 14.2603 14.8086 14.1906L14.7574 14.1395C14.4797 13.8556 14.2935 13.495 14.2226 13.1042C14.152 12.7148 14.1993 12.3133 14.3583 11.9509C14.5112 11.5962 14.7641 11.2937 15.0861 11.0804C15.4093 10.8664 15.788 10.7516 16.1756 10.75L16.1786 10.75L16.2461 10.75C16.445 10.75 16.6358 10.671 16.7764 10.5303C16.9171 10.3897 16.9961 10.1989 16.9961 10C16.9961 9.80109 16.9171 9.61032 16.7764 9.46967C16.6358 9.32902 16.445 9.25 16.2461 9.25H16.1186L16.1156 9.24999C15.728 9.24845 15.3493 9.1336 15.0261 8.91958C14.703 8.70556 14.4494 8.40172 14.2967 8.04545C14.2696 7.98203 14.2513 7.91531 14.2424 7.84721C14.1291 7.52348 14.1011 7.17499 14.1626 6.83575C14.2335 6.445 14.4198 6.08444 14.6974 5.80055L14.7032 5.79464L14.7483 5.74967C14.818 5.68002 14.8736 5.597 14.9114 5.50596C14.9491 5.41491 14.9685 5.31731 14.9685 5.21875C14.9685 5.12019 14.9491 5.02259 14.9114 4.93154C14.8736 4.8405 14.8183 4.75778 14.7486 4.68813L14.748 4.68754C14.6783 4.6178 14.5956 4.56248 14.5045 4.52474C14.4135 4.487 14.3159 4.46757 14.2173 4.46757C14.1188 4.46757 14.0212 4.487 13.9301 4.52474C13.8391 4.56248 13.7564 4.6178 13.6867 4.68754L13.6356 4.73868C13.3517 5.01637 12.9911 5.20262 12.6003 5.27347C12.2109 5.34408 11.8093 5.29681 11.4469 5.13776C11.0923 4.9849 10.7898 4.73201 10.5765 4.40996C10.3625 4.08679 10.2476 3.7081 10.2461 3.32049L10.2461 3.3175V3.25C10.2461 3.05109 10.1671 2.86032 10.0264 2.71967C9.88577 2.57902 9.69501 2.5 9.49609 2.5ZM15.0461 12.25L15.7322 12.5528C15.6929 12.6419 15.6812 12.7408 15.6986 12.8366C15.7157 12.9314 15.7606 13.019 15.8275 13.0882L15.8686 13.1294C16.0777 13.3383 16.2438 13.5866 16.357 13.8596C16.4702 14.1328 16.5285 14.4256 16.5285 14.7213C16.5285 15.0169 16.4702 15.3097 16.357 15.5829C16.2438 15.856 16.0778 16.1042 15.8686 16.3131L15.3386 15.7825L15.8692 16.3125C15.6603 16.5217 15.4121 16.6877 15.139 16.8009C14.8658 16.9141 14.573 16.9724 14.2773 16.9724C13.9817 16.9724 13.6889 16.9141 13.4157 16.8009C13.1427 16.6877 12.8947 16.5219 12.6858 16.3128L12.6443 16.2714C12.5751 16.2045 12.4875 16.1597 12.3927 16.1425C12.2969 16.1251 12.198 16.1368 12.1089 16.1761L12.1016 16.1794C12.0142 16.2168 11.9396 16.279 11.8871 16.3583C11.8348 16.4372 11.8067 16.5297 11.8061 16.6244V16.75C11.8061 17.3467 11.569 17.919 11.1471 18.341C10.7251 18.7629 10.1528 19 9.55609 19C8.95936 19 8.38706 18.7629 7.9651 18.341C7.54315 17.919 7.30609 17.3467 7.30609 16.75V16.6933C7.30254 16.5979 7.27104 16.5056 7.21545 16.4278C7.15854 16.3483 7.07902 16.2877 6.98721 16.2539C6.97238 16.2484 6.95773 16.2425 6.94327 16.2361C6.85416 16.1968 6.7553 16.1851 6.65946 16.2025C6.56466 16.2197 6.4771 16.2645 6.40782 16.3314L6.36672 16.3725C6.15781 16.5816 5.90948 16.7477 5.63646 16.8609C5.36331 16.9741 5.07053 17.0324 4.77484 17.0324C4.47916 17.0324 4.18637 16.9741 3.91323 16.8609C3.64034 16.7478 3.3924 16.582 3.18356 16.3731C2.97436 16.1642 2.8084 15.916 2.69517 15.6429C2.58194 15.3697 2.52366 15.0769 2.52366 14.7812C2.52366 14.4856 2.58194 14.1928 2.69517 13.9196C2.8084 13.6465 2.97436 13.3983 3.18356 13.1894L3.22468 13.1483C3.29156 13.079 3.33644 12.9914 3.35363 12.8966C3.37101 12.8008 3.35928 12.7019 3.31995 12.6128L3.3167 12.6055C3.27925 12.5181 3.2171 12.4435 3.13783 12.391C3.05887 12.3387 2.9664 12.3106 2.87172 12.31H2.74609C2.14936 12.31 1.57706 12.0729 1.1551 11.651C0.733147 11.229 0.496094 10.6567 0.496094 10.06C0.496094 9.46326 0.733147 8.89097 1.1551 8.46901C1.57706 8.04705 2.14936 7.81 2.74609 7.81H2.80282C2.89822 7.80644 2.99053 7.77495 3.06826 7.71936C3.14782 7.66245 3.20843 7.58292 3.24219 7.49111C3.24765 7.47628 3.25357 7.46163 3.25995 7.44718C3.29928 7.35806 3.31101 7.25921 3.29363 7.16337C3.27644 7.06857 3.23155 6.98101 3.16467 6.91173L3.12356 6.87063C2.91436 6.66166 2.7484 6.41351 2.63517 6.14037C2.52194 5.86722 2.46366 5.57443 2.46366 5.27875C2.46366 4.98307 2.52194 4.69028 2.63517 4.41713C2.74835 4.14412 2.91421 3.89607 3.12326 3.68717C3.33217 3.47811 3.58021 3.31226 3.85323 3.19908C4.12637 3.08585 4.41916 3.02757 4.71484 3.02757C5.01053 3.02757 5.30331 3.08585 5.57646 3.19908C5.84961 3.31231 6.09775 3.47827 6.30672 3.68746L6.34783 3.72857C6.4171 3.79546 6.50466 3.84035 6.59946 3.85754C6.6953 3.87491 6.79416 3.86318 6.88327 3.82385C6.9313 3.80266 6.98129 3.78662 7.0324 3.77592C7.08469 3.74042 7.12983 3.69492 7.16505 3.64174C7.21734 3.56278 7.2455 3.47031 7.24609 3.37562V3.25C7.24609 2.65326 7.48315 2.08097 7.9051 1.65901C8.32706 1.23705 8.89936 1 9.49609 1C10.0928 1 10.6651 1.23705 11.0871 1.65901C11.509 2.08097 11.7461 2.65326 11.7461 3.25V3.31562C11.7467 3.41031 11.7748 3.50278 11.8271 3.58174C11.8796 3.661 11.9542 3.72319 12.0415 3.76064L12.0489 3.76381C12.138 3.80314 12.2369 3.81491 12.3327 3.79754C12.4275 3.78035 12.5151 3.73546 12.5844 3.66858L12.6255 3.62747C12.8344 3.41827 13.0826 3.25231 13.3557 3.13908C13.6289 3.02585 13.9217 2.96757 14.2173 2.96757C14.513 2.96757 14.8058 3.02585 15.079 3.13908C15.3521 3.25231 15.6003 3.41827 15.8092 3.62747C16.0181 3.83631 16.1839 4.08424 16.297 4.35713C16.4102 4.63028 16.4685 4.92306 16.4685 5.21875C16.4685 5.51444 16.4102 5.80722 16.297 6.08037C16.1838 6.35338 16.018 6.60143 15.8089 6.81033L15.7675 6.85173C15.7006 6.92101 15.6557 7.00857 15.6386 7.10337C15.6212 7.19921 15.6329 7.29806 15.6722 7.38718C15.6934 7.43521 15.7095 7.48519 15.7202 7.5363C15.7557 7.58859 15.8012 7.63374 15.8544 7.66896C15.9333 7.72125 16.0258 7.74941 16.1205 7.75H16.2461C16.8428 7.75 17.4151 7.98705 17.8371 8.40901C18.259 8.83097 18.4961 9.40326 18.4961 10C18.4961 10.5967 18.259 11.169 17.8371 11.591C17.4151 12.0129 16.8428 12.25 16.2461 12.25H16.1805C16.0858 12.2506 15.9933 12.2787 15.9144 12.331C15.8351 12.3835 15.7729 12.4581 15.7354 12.5454L15.0461 12.25Z" fill="#9E9E9E"/>
</g>
</g>
</svg>
