<svg width="18" height="18" viewBox="0 0 18 18" fill="none" xmlns="http://www.w3.org/2000/svg">
<g id="icons8-google-calendar 2" clip-path="url(#clip0_881_6242)">
<g id="google event ">
<g id="Vector">
<mask id="path-1-inside-1_881_6242" fill="white">
<path d="M12.3021 5.17407C12.2132 5.17407 12.1246 5.21869 12.036 5.30825L11.0925 6.43924C10.9695 6.53635 10.9077 6.65677 10.9077 6.80172C10.9077 6.89847 10.9386 6.98338 11.0001 7.05531C11.0617 7.12797 11.137 7.1642 11.2259 7.1642C11.3006 7.1642 11.373 7.12665 11.4413 7.0504L11.8207 6.47998V12.4518C11.8207 12.5489 11.8628 12.625 11.9485 12.6801C12.0342 12.7355 12.1351 12.763 12.2514 12.763C12.3677 12.763 12.4683 12.7355 12.5536 12.6801C12.639 12.6247 12.6815 12.5489 12.6815 12.4518V5.48457C12.6815 5.38782 12.6427 5.31199 12.564 5.25696C12.4854 5.20158 12.3982 5.17407 12.3021 5.17407ZM7.56525 5.18461C7.17539 5.18461 6.83561 5.24332 6.54534 5.36093C6.25472 5.47854 6.03771 5.62885 5.89435 5.81192C5.75064 5.995 5.64611 6.17819 5.58102 6.36126C5.51628 6.54433 5.48375 6.72251 5.48375 6.89515C5.48375 7.06779 5.51295 7.18557 5.57129 7.24779C5.62927 7.31002 5.75037 7.34122 5.93534 7.34122C6.20818 7.34122 6.34456 7.2137 6.34456 6.95978C6.34456 6.69254 6.43549 6.46103 6.6169 6.26573C6.79761 6.07006 7.10688 5.97209 7.54441 5.97209C8.31027 5.97209 8.69354 6.37471 8.69354 7.17965C8.69354 7.64794 8.59468 7.97136 8.39619 8.15048C8.1977 8.32923 7.90038 8.41883 7.50411 8.41883C7.30562 8.41883 7.20606 8.53995 7.20606 8.78201C7.20606 9.02407 7.30562 9.14449 7.50411 9.14449C8.42008 9.14449 8.87765 9.56659 8.87765 10.4097V10.6063C8.87765 11.5606 8.42008 12.0373 7.50411 12.0373C7.05271 12.0373 6.71556 11.9306 6.49324 11.7163C6.27091 11.5023 6.16045 11.263 6.16045 11.0004C6.16045 10.8828 6.12792 10.7966 6.06318 10.7412C5.99773 10.6862 5.88326 10.6583 5.71927 10.6583C5.5688 10.6583 5.46461 10.6862 5.40663 10.7412C5.34865 10.797 5.31909 10.9043 5.31909 11.063C5.31909 11.5122 5.50724 11.9178 5.88324 12.2811C6.25923 12.6443 6.80015 12.8262 7.50411 12.8262C8.17393 12.8262 8.71415 12.6463 9.12429 12.2867C9.53443 11.9274 9.73915 11.3674 9.73915 10.6071V10.4104C9.73915 9.59499 9.39075 9.04506 8.69354 8.76164C8.94646 8.64474 9.14821 8.43507 9.29868 8.13151C9.44879 7.82831 9.52378 7.45993 9.52378 7.02581C9.52378 5.79862 8.87109 5.18461 7.56525 5.18461Z"/>
</mask>
<path d="M12.036 5.30825L11.325 4.60506L11.2953 4.63516L11.2681 4.66767L12.036 5.30825ZM11.0925 6.43924L11.712 7.2243L11.7937 7.15979L11.8604 7.07982L11.0925 6.43924ZM11.0001 7.05531L11.7632 6.40898L11.76 6.40524L11.0001 7.05531ZM11.4413 7.0504L12.1862 7.71759L12.2342 7.66403L12.274 7.60415L11.4413 7.0504ZM11.8207 6.47998H12.8207V3.17041L10.988 5.92623L11.8207 6.47998ZM11.9485 12.6801L12.4912 11.8401L12.4887 11.8385L11.9485 12.6801ZM12.564 5.25696L11.9881 6.07444L11.9906 6.0762L12.564 5.25696ZM6.54534 5.36093L6.92048 6.2879L6.92087 6.28774L6.54534 5.36093ZM5.89435 5.81192L6.68095 6.42939L6.68169 6.42845L5.89435 5.81192ZM5.58102 6.36126L4.63881 6.02623L4.63823 6.02786L5.58102 6.36126ZM5.57129 7.24779L6.30289 6.56605L6.30081 6.56383L5.57129 7.24779ZM6.6169 6.26573L7.34958 6.94631L7.35153 6.9442L6.6169 6.26573ZM8.39619 8.15048L9.06539 8.89356L9.06613 8.89289L8.39619 8.15048ZM6.49324 11.7163L7.18734 10.9964L7.18673 10.9958L6.49324 11.7163ZM6.06318 10.7412L6.7133 9.98134L6.70671 9.9758L6.06318 10.7412ZM5.40663 10.7412L4.71822 10.0159L4.71354 10.0204L5.40663 10.7412ZM9.12429 12.2867L8.46533 11.5345L8.46496 11.5348L9.12429 12.2867ZM8.69354 8.76164L8.274 7.8539L6.18274 8.82044L8.31696 9.68802L8.69354 8.76164ZM9.29868 8.13151L10.1946 8.57562L10.1949 8.5752L9.29868 8.13151ZM12.3021 4.17407C11.8518 4.17407 11.5227 4.40518 11.325 4.60506L12.747 6.01144C12.7265 6.0322 12.5746 6.17407 12.3021 6.17407V4.17407ZM11.2681 4.66767L10.3247 5.79866L11.8604 7.07982L12.8039 5.94883L11.2681 4.66767ZM10.4731 5.65418C10.1342 5.92158 9.90774 6.3207 9.90774 6.80172H11.9077C11.9077 6.8765 11.8905 6.96748 11.8446 7.05724C11.8001 7.14439 11.7454 7.19791 11.712 7.2243L10.4731 5.65418ZM9.90774 6.80172C9.90774 7.13024 10.0195 7.44735 10.2403 7.70538L11.76 6.40524C11.8034 6.45591 11.843 6.52008 11.8705 6.59566C11.8979 6.6709 11.9077 6.7421 11.9077 6.80172H9.90774ZM10.2371 7.70164C10.4741 7.98147 10.8213 8.1642 11.2259 8.1642V6.1642C11.3217 6.1642 11.4303 6.18478 11.5369 6.23615C11.6418 6.28668 11.7158 6.35301 11.7632 6.40898L10.2371 7.70164ZM11.2259 8.1642C11.6717 8.1642 11.995 7.93102 12.1862 7.71759L10.6964 6.3832C10.751 6.32227 10.9296 6.1642 11.2259 6.1642V8.1642ZM12.274 7.60415L12.6533 7.03373L10.988 5.92623L10.6086 6.49664L12.274 7.60415ZM10.8207 6.47998V12.4518H12.8207V6.47998H10.8207ZM10.8207 12.4518C10.8207 12.903 11.0476 13.2901 11.4083 13.5216L12.4887 11.8385C12.5619 11.8855 12.6547 11.9672 12.7256 12.0943C12.7974 12.2229 12.8207 12.3511 12.8207 12.4518H10.8207ZM11.4058 13.52C11.6757 13.6944 11.9712 13.763 12.2514 13.763V11.763C12.299 11.763 12.3927 11.7765 12.4912 11.8401L11.4058 13.52ZM12.2514 13.763C12.5318 13.763 12.8277 13.6943 13.0979 13.519L12.0093 11.8412C12.0553 11.8114 12.1036 11.7905 12.1498 11.7779C12.1949 11.7655 12.2305 11.763 12.2514 11.763V13.763ZM13.0979 13.519C13.4509 13.2899 13.6815 12.9069 13.6815 12.4518H11.6815C11.6815 12.3494 11.7054 12.2209 11.777 12.093C11.8476 11.967 11.939 11.8868 12.0093 11.8412L13.0979 13.519ZM13.6815 12.4518V5.48457H11.6815V12.4518H13.6815ZM13.6815 5.48457C13.6815 5.06843 13.4891 4.68383 13.1375 4.43773L11.9906 6.0762C11.9131 6.02199 11.8265 5.93591 11.7631 5.81286C11.7001 5.69047 11.6815 5.57292 11.6815 5.48457H13.6815ZM13.14 4.43949C12.892 4.26477 12.6034 4.17407 12.3021 4.17407V6.17407C12.2533 6.17407 12.197 6.16684 12.1382 6.14823C12.0793 6.12961 12.0287 6.10307 11.9881 6.07444L13.14 4.43949ZM7.56525 4.18461C7.0772 4.18461 6.60475 4.25789 6.16981 4.43412L6.92087 6.28774C7.06647 6.22875 7.27357 6.18461 7.56525 6.18461V4.18461ZM6.17021 4.43396C5.77191 4.59515 5.38949 4.83467 5.10702 5.1954L6.68169 6.42845C6.68593 6.42303 6.73754 6.36194 6.92048 6.2879L6.17021 4.43396ZM5.10776 5.19445C4.91017 5.44617 4.74656 5.7232 4.63881 6.02623L6.52322 6.69629C6.54567 6.63318 6.59112 6.54382 6.68095 6.42939L5.10776 5.19445ZM4.63823 6.02786C4.54043 6.30442 4.48375 6.59536 4.48375 6.89515H6.48375C6.48375 6.84965 6.49212 6.78425 6.5238 6.69466L4.63823 6.02786ZM4.48375 6.89515C4.48375 7.09905 4.5013 7.5686 4.84177 7.93176L6.30081 6.56383C6.42759 6.69905 6.46601 6.83096 6.4762 6.87202C6.48748 6.91747 6.48375 6.93156 6.48375 6.89515H4.48375ZM4.83969 7.92953C5.04647 8.15143 5.29295 8.24428 5.45687 8.28639C5.62732 8.33018 5.79461 8.34122 5.93534 8.34122V6.34122C5.89111 6.34122 5.90536 6.33666 5.95452 6.34929C5.99715 6.36024 6.15409 6.40637 6.30289 6.56606L4.83969 7.92953ZM5.93534 8.34122C6.20979 8.34122 6.60122 8.27844 6.9244 7.97695C7.26063 7.66329 7.34456 7.25992 7.34456 6.95978H5.34456C5.34456 6.91356 5.3603 6.70091 5.56013 6.5145C5.74691 6.34025 5.93374 6.34122 5.93534 6.34122V8.34122ZM7.34456 6.95978C7.34456 6.94988 7.34538 6.94544 7.3454 6.94533C7.34542 6.94519 7.34532 6.94578 7.34499 6.94694C7.34466 6.94811 7.34419 6.94955 7.34357 6.95113C7.34295 6.95271 7.34231 6.95411 7.34173 6.95524C7.34116 6.95636 7.3408 6.95692 7.34083 6.95687C7.34087 6.95682 7.34143 6.95594 7.34275 6.95424C7.34407 6.95254 7.34626 6.94988 7.34957 6.94631L5.88423 5.58514C5.53073 5.9657 5.34456 6.44045 5.34456 6.95978H7.34456ZM7.35153 6.9442C7.30082 6.9991 7.26143 7.00673 7.28621 6.99888C7.31588 6.98949 7.39485 6.97209 7.54441 6.97209V4.97209C7.00035 4.97209 6.34402 5.08729 5.88228 5.58725L7.35153 6.9442ZM7.54441 6.97209C7.65106 6.97209 7.70242 6.98643 7.7164 6.99133C7.72504 6.99435 7.7054 6.98823 7.68179 6.96341C7.63076 6.9098 7.69354 6.91946 7.69354 7.17965H9.69354C9.69354 6.6349 9.56469 6.04079 9.13056 5.58462C8.68762 5.11921 8.09462 4.97209 7.54441 4.97209V6.97209ZM7.69354 7.17965C7.69354 7.34985 7.67481 7.44253 7.6631 7.48078C7.65262 7.51502 7.65974 7.46808 7.72624 7.40807L9.06613 8.89289C9.58788 8.42207 9.69354 7.73038 9.69354 7.17965H7.69354ZM7.72698 7.4074C7.75372 7.38332 7.76625 7.38505 7.73614 7.39411C7.70249 7.40423 7.63004 7.41883 7.50411 7.41883V9.41883C8.03135 9.41883 8.61214 9.30174 9.06539 8.89356L7.72698 7.4074ZM7.50411 7.41883C7.19242 7.41883 6.79641 7.52352 6.50776 7.87511C6.25 8.18907 6.20606 8.54907 6.20606 8.78201H8.20606C8.20606 8.78679 8.20592 8.82626 8.18919 8.88735C8.17183 8.95069 8.13395 9.04625 8.05354 9.14419C7.86429 9.3747 7.61732 9.41883 7.50411 9.41883V7.41883ZM6.20606 8.78201C6.20606 9.01485 6.24996 9.37546 6.50867 9.68966C6.79806 10.0411 7.19423 10.1445 7.50411 10.1445V8.14449C7.61551 8.14449 7.86265 8.18764 8.05264 8.41838C8.13348 8.51657 8.17161 8.61251 8.18909 8.6762C8.20593 8.73758 8.20606 8.77725 8.20606 8.78201H6.20606ZM7.50411 10.1445C7.82727 10.1445 7.88315 10.2207 7.85674 10.1963C7.81487 10.1577 7.87765 10.1643 7.87765 10.4097H9.87765C9.87765 9.81195 9.71165 9.18592 9.21201 8.72552C8.72782 8.27937 8.09693 8.14449 7.50411 8.14449V10.1445ZM7.87765 10.4097V10.6063H9.87765V10.4097H7.87765ZM7.87765 10.6063C7.87765 10.9395 7.79714 11.0036 7.81293 10.9872C7.83607 10.9631 7.7975 11.0373 7.50411 11.0373V13.0373C8.1267 13.0373 8.7749 12.8732 9.25581 12.3721C9.72938 11.8788 9.87765 11.2274 9.87765 10.6063H7.87765ZM7.50411 11.0373C7.19156 11.0373 7.1518 10.9621 7.18734 10.9964L5.79913 12.4361C6.27932 12.8991 6.91385 13.0373 7.50411 13.0373V11.0373ZM7.18673 10.9958C7.15013 10.9606 7.14602 10.9458 7.15054 10.9556C7.15268 10.9602 7.15556 10.9678 7.1577 10.9776C7.15985 10.9873 7.16045 10.9954 7.16045 11.0004H5.16045C5.16045 11.5798 5.41655 12.0679 5.79974 12.4367L7.18673 10.9958ZM7.16045 11.0004C7.16045 10.7046 7.07416 10.2901 6.71328 9.98137L5.41308 11.5011C5.18168 11.3031 5.16045 11.061 5.16045 11.0004H7.16045ZM6.70671 9.9758C6.35797 9.68259 5.93482 9.65833 5.71927 9.65833V11.6583C5.74991 11.6583 5.73589 11.6615 5.69331 11.6512C5.6532 11.6415 5.54097 11.6086 5.41965 11.5066L6.70671 9.9758ZM5.71927 9.65833C5.51023 9.65833 5.06786 9.68406 4.71823 10.0159L6.09503 11.4666C5.968 11.5871 5.84133 11.6307 5.78506 11.6456C5.72806 11.6608 5.69989 11.6583 5.71927 11.6583V9.65833ZM4.71354 10.0204C4.34041 10.3791 4.31909 10.8604 4.31909 11.063H6.31909C6.31909 11.0389 6.32207 11.0673 6.30584 11.1268C6.29011 11.1844 6.24108 11.3262 6.09972 11.4621L4.71354 10.0204ZM4.31909 11.063C4.31909 11.8287 4.65261 12.4826 5.18841 13.0002L6.57807 11.5619C6.36188 11.353 6.31909 11.1956 6.31909 11.063H4.31909ZM5.18841 13.0002C5.80799 13.5988 6.63301 13.8262 7.50411 13.8262V11.8262C6.96729 11.8262 6.71047 11.6898 6.57807 11.5619L5.18841 13.0002ZM7.50411 13.8262C8.35882 13.8262 9.15192 13.5925 9.78362 13.0385L8.46496 11.5348C8.27638 11.7002 7.98903 11.8262 7.50411 11.8262V13.8262ZM9.78325 13.0389C10.4857 12.4235 10.7392 11.537 10.7392 10.6071H8.73915C8.73915 11.1978 8.58317 11.4313 8.46533 11.5345L9.78325 13.0389ZM10.7392 10.6071V10.4104H8.73915V10.6071H10.7392ZM10.7392 10.4104C10.7392 9.86088 10.621 9.32211 10.3224 8.85104C10.0199 8.37403 9.58056 8.04275 9.07012 7.83525L8.31696 9.68802C8.50373 9.76394 8.58719 9.84934 8.63325 9.92199C8.68308 10.0006 8.73915 10.1445 8.73915 10.4104H10.7392ZM9.11308 9.66937C9.61409 9.43782 9.96499 9.03895 10.1946 8.57562L8.40271 7.6874C8.33143 7.8312 8.27882 7.85167 8.274 7.8539L9.11308 9.66937ZM10.1949 8.5752C10.4298 8.10066 10.5238 7.57165 10.5238 7.02581H8.52378C8.52378 7.34822 8.46778 7.55596 8.4025 7.68782L10.1949 8.5752ZM10.5238 7.02581C10.5238 6.24173 10.3123 5.47414 9.71921 4.91648C9.13769 4.36969 8.35754 4.18461 7.56525 4.18461V6.18461C8.0788 6.18461 8.27792 6.30653 8.3492 6.37355C8.4089 6.42969 8.52378 6.58269 8.52378 7.02581H10.5238Z" fill="#9E9E9E" mask="url(#path-1-inside-1_881_6242)"/>
</g>
<path id="Rectangle 3245" d="M2.00024 0.75H16.0002C16.6906 0.75 17.2502 1.30964 17.2502 2V12.7914C17.2502 13.1246 17.1172 13.4439 16.8808 13.6786L13.6477 16.8872C13.4136 17.1196 13.0971 17.25 12.7672 17.25H2.00024C1.30989 17.25 0.750244 16.6904 0.750244 16V2C0.750244 1.30964 1.30989 0.75 2.00024 0.75Z" stroke="#9E9E9E" stroke-width="1.5"/>
</g>
</g>
<defs>
<clipPath id="clip0_881_6242">
<rect width="17.8022" height="18" fill="white" transform="translate(0.0991211)"/>
</clipPath>
</defs>
</svg>
