<svg width="24" height="25" viewBox="0 0 24 25" fill="none" xmlns="http://www.w3.org/2000/svg">
<g id="Search" clip-path="url(#clip0_12_5209)">
<g id="Vector">
<path fill-rule="evenodd" clip-rule="evenodd" d="M11.3861 0.710648C11.7472 0.429784 12.2528 0.429784 12.6139 0.710648L21.6139 7.71065C21.8575 7.9001 22 8.19141 22 8.5V19.5C22 20.2957 21.6839 21.0587 21.1213 21.6213C20.5587 22.1839 19.7957 22.5 19 22.5H5C4.20435 22.5 3.44129 22.1839 2.87868 21.6213C2.31607 21.0587 2 20.2957 2 19.5V8.5C2 8.19141 2.14247 7.9001 2.38606 7.71065L11.3861 0.710648ZM4 8.98908V19.5C4 19.7652 4.10536 20.0196 4.29289 20.2071C4.48043 20.3946 4.73478 20.5 5 20.5H19C19.2652 20.5 19.5196 20.3946 19.7071 20.2071C19.8946 20.0196 20 19.7652 20 19.5V8.98908L12 2.76686L4 8.98908Z" fill="#9E9E9E"/>
<path fill-rule="evenodd" clip-rule="evenodd" d="M8 11.5C8 10.9477 8.44772 10.5 9 10.5H15C15.5523 10.5 16 10.9477 16 11.5V21.5C16 22.0523 15.5523 22.5 15 22.5C14.4477 22.5 14 22.0523 14 21.5V12.5H10V21.5C10 22.0523 9.55228 22.5 9 22.5C8.44772 22.5 8 22.0523 8 21.5V11.5Z" fill="#9E9E9E"/>
</g>
</g>
<defs>
<clipPath id="clip0_12_5209">
<rect width="24" height="24" fill="white" transform="translate(0 0.5)"/>
</clipPath>
</defs>
</svg>
