<svg width="13" height="13" viewBox="0 0 13 13" fill="none" xmlns="http://www.w3.org/2000/svg">
<g id="&#240;&#159;&#166;&#134; icon &#34;Rocket&#34;">
<path id="Vector" d="M4.43106 11.0689C4.61066 11.2485 4.63062 11.5273 4.49093 11.7289L4.43106 11.8006L3.88324 12.3485C3.68119 12.5504 3.35361 12.5504 3.15156 12.3485C2.97196 12.1688 2.95201 11.89 3.09169 11.6884L3.15156 11.6168L3.69939 11.0689C3.90144 10.8669 4.22902 10.8669 4.43106 11.0689ZM3.33278 9.97051C3.51239 10.1501 3.53234 10.4289 3.39265 10.6305L3.33278 10.7022L1.96667 12.0684C1.76463 12.2703 1.43705 12.2703 1.235 12.0684C1.0554 11.8887 1.03545 11.6099 1.17513 11.4083L1.235 11.3367L2.60112 9.97051C2.80316 9.76843 3.13074 9.76843 3.33278 9.97051ZM11.2558 0.731294C11.8831 0.928806 12.3745 1.42015 12.5719 2.04745C13.1081 3.75038 12.6958 5.60337 11.5039 6.91633L11.3365 7.09196L10.6858 7.74268C11.048 8.58428 10.9182 9.58694 10.2965 10.3131L10.1656 10.4546L9.35281 11.2674C9.17318 11.447 8.89438 11.4669 8.69276 11.3272L8.62111 11.2674L7.74152 10.3877C7.27724 10.5093 6.76766 10.4124 6.37567 10.0971L6.24958 9.98386L6.07725 9.81147L5.59895 10.6107C5.51708 10.7475 5.37671 10.8389 5.2185 10.8584C5.09193 10.8741 4.96524 10.8424 4.86192 10.7713L4.78918 10.7108L2.59239 8.51404C2.47964 8.40128 2.42518 8.24283 2.44479 8.08459C2.46047 7.95798 2.52215 7.84283 2.61627 7.75994L2.69273 7.70414L3.49199 7.22626L3.31937 7.05364C2.95549 6.68977 2.81006 6.19015 2.88307 5.71778L2.9155 5.56155L2.03606 4.6821C1.85647 4.50251 1.83651 4.22372 1.9762 4.02209L2.03606 3.95043L2.84883 3.13766C3.53617 2.45033 4.52917 2.25494 5.39028 2.5515L5.56062 2.61737L6.21128 1.96673C7.53109 0.646901 9.47543 0.170722 11.2558 0.731294ZM2.23426 8.87224C2.4363 9.07432 2.4363 9.40192 2.23426 9.6039L1.68642 10.1517C1.48438 10.3538 1.1568 10.3538 0.954756 10.1517C0.752712 9.94971 0.752712 9.62211 0.954756 9.42003L1.50258 8.87224C1.70462 8.6702 2.03221 8.6702 2.23426 8.87224ZM9.84493 8.58352L8.62278 9.80568L8.98693 10.1698L9.43383 9.7229C9.7457 9.41113 9.8827 8.99071 9.84493 8.58352ZM4.24647 7.98074L3.79337 8.25166L5.05176 9.51005L5.32284 9.05714L4.24647 7.98074ZM7.11231 2.53865L6.94295 2.69839L4.05105 5.5903C3.87146 5.76989 3.8515 6.04868 3.99119 6.25032L4.05105 6.32197L6.98126 9.25219C7.16085 9.43173 7.43964 9.45168 7.64127 9.31204L7.71293 9.25219L10.6048 6.36028C11.6519 5.3132 12.0297 3.77065 11.585 2.35821C11.4889 2.05321 11.25 1.8143 10.945 1.71826C9.60688 1.29694 8.15204 1.61383 7.11231 2.53865ZM9.34226 3.96106C9.99673 4.6156 10.002 5.67778 9.34629 6.33351C8.69057 6.98923 7.62842 6.98393 6.97388 6.32939C6.31934 5.67486 6.31405 4.61267 6.96976 3.95694C7.62549 3.30121 8.68768 3.30652 9.34226 3.96106ZM7.70144 4.68862C7.45327 4.93679 7.45164 5.34381 7.70556 5.59771C7.95947 5.85163 8.36648 5.85001 8.61466 5.60183C8.86286 5.35366 8.86441 4.94664 8.61054 4.69274C8.35663 4.43882 7.94962 4.44045 7.70144 4.68862ZM3.70226 3.76063L3.5805 3.86934L3.13358 4.31627L3.49765 4.68034L4.71973 3.45827C4.36345 3.42528 3.99712 3.52607 3.70226 3.76063Z" fill="#7350FF"/>
</g>
</svg>
