<svg width="30" height="30" viewBox="0 0 30 30" fill="none" xmlns="http://www.w3.org/2000/svg">
<g id="terms and condition ">
<circle id="Ellipse 5" cx="15" cy="15" r="14.5" stroke="#7350FF"/>
<g id="terms and condition icon">
<path id="Vector" d="M16.625 7.5H10.125C9.69402 7.5 9.2807 7.65804 8.97595 7.93934C8.6712 8.22064 8.5 8.60218 8.5 9V21C8.5 21.3978 8.6712 21.7794 8.97595 22.0607C9.2807 22.342 9.69402 22.5 10.125 22.5H19.875C20.306 22.5 20.7193 22.342 21.024 22.0607C21.3288 21.7794 21.5 21.3978 21.5 21V12L16.625 7.5Z" stroke="#7350FF" stroke-linecap="round" stroke-linejoin="round"/>
<path id="Vector_2" d="M16.625 7.5V12H21.5" stroke="#7350FF" stroke-linecap="round" stroke-linejoin="round"/>
<path id="Vector_3" d="M18.25 15.75H11.75" stroke="#7350FF" stroke-linecap="round" stroke-linejoin="round"/>
<path id="Vector_4" d="M18.25 18.75H11.75" stroke="#7350FF" stroke-linecap="round" stroke-linejoin="round"/>
<path id="Vector_5" d="M13.375 12.75H12.5625H11.75" stroke="#7350FF" stroke-linecap="round" stroke-linejoin="round"/>
</g>
</g>
</svg>
